<svg width="11" height="30" viewBox="0 0 11 30" fill="none" xmlns="http://www.w3.org/2000/svg">
<path d="M4.45882 0.0538807C2.93281 0.401218 1.67443 1.74501 0.894342 3.85751C0.296466 5.47462 -0.0508709 7.78071 0.00606965 9.68252C0.0573161 11.3509 0.296466 12.5068 1.08225 14.8869C1.71998 16.8115 1.77692 16.8684 2.88726 16.6577C4.48729 16.3616 7.12933 16.4243 8.94573 16.8058C9.66888 16.9538 9.94788 16.8741 10.1244 16.4641C10.3408 15.9801 10.7451 13.395 10.8703 11.7096C10.9614 10.4114 10.9102 8.2647 10.7564 7.26255C10.3522 4.61482 9.49236 2.73009 8.08024 1.3806C7.41403 0.742861 6.7706 0.344278 6.02468 0.110821C5.64888 -0.00875282 4.8631 -0.0372238 4.45882 0.0538807Z" fill="#F2CD00"/>
<path d="M1.44667 20.8089C0.774771 23.6616 0.769077 25.8367 1.42959 27.1919C1.64596 27.6304 2.27231 28.2909 2.69367 28.5243C3.65596 29.0596 5.13072 29.2646 6.03038 28.9912C7.52792 28.5357 8.5984 27.0439 8.95143 24.9143C9.08239 24.1 9.31585 21.2132 9.24752 21.2132C9.20766 21.2132 1.87942 20.2509 1.71429 20.2281C1.60041 20.2053 1.57763 20.2509 1.44667 20.8089Z" fill="#F2CD00"/>
</svg>
