<svg width="9" height="22" viewBox="0 0 9 22" fill="none" xmlns="http://www.w3.org/2000/svg">
<path d="M3.27892 0.0395498C2.15673 0.294972 1.23135 1.28316 0.657698 2.83663C0.218036 4.02581 -0.0373862 5.72165 0.00448634 7.12019C0.0421716 8.34706 0.218036 9.19707 0.795877 10.9473C1.26485 12.3626 1.30672 12.4045 2.12324 12.2496C3.29985 12.0318 5.24274 12.0779 6.57847 12.3584C7.11025 12.4673 7.31543 12.4087 7.44523 12.1072C7.60435 11.7513 7.90164 9.85028 7.99376 8.61085C8.06076 7.65616 8.02307 6.07757 7.91002 5.34061C7.61272 3.39354 6.98045 2.00756 5.94201 1.01518C5.4521 0.546207 4.97894 0.253099 4.43041 0.0814228C4.15405 -0.00650978 3.57621 -0.0274458 3.27892 0.0395498Z" fill="black"/>
<path d="M1.06386 15.3023C0.56976 17.4001 0.565573 18.9996 1.05129 19.9962C1.21041 20.3186 1.67101 20.8043 1.98086 20.976C2.68851 21.3696 3.77301 21.5203 4.43459 21.3193C5.53584 20.9844 6.32305 19.8873 6.58265 18.3213C6.67896 17.7225 6.85064 15.5996 6.80039 15.5996C6.77108 15.5996 1.38209 14.8919 1.26066 14.8752C1.17691 14.8584 1.16016 14.8919 1.06386 15.3023Z" fill="black"/>
</svg>
