<svg width="9" height="22" viewBox="0 0 9 22" fill="none" xmlns="http://www.w3.org/2000/svg">
<path d="M4.74804 0.0395498C5.87022 0.294972 6.7956 1.28316 7.36926 2.83663C7.80892 4.02581 8.06434 5.72165 8.02247 7.12019C7.98478 8.34706 7.80892 9.19707 7.23108 10.9473C6.76211 12.3626 6.72023 12.4045 5.90372 12.2496C4.7271 12.0318 2.78422 12.0779 1.44848 12.3584C0.916702 12.4673 0.711527 12.4087 0.581722 12.1072C0.422606 11.7513 0.125311 9.85028 0.0331917 8.61085C-0.0338039 7.65616 0.00388145 6.07757 0.116937 5.34061C0.414232 3.39354 1.04651 2.00756 2.08495 1.01518C2.57485 0.546207 3.04801 0.253099 3.59654 0.0814228C3.8729 -0.00650978 4.45074 -0.0274458 4.74804 0.0395498Z" fill="black"/>
<path d="M6.96301 15.3018C7.45711 17.3996 7.4613 18.9991 6.97558 19.9957C6.81646 20.3181 6.35586 20.8038 6.04601 20.9755C5.33836 21.3691 4.25386 21.5198 3.59228 21.3189C2.49103 20.9839 1.70383 19.8868 1.44422 18.3208C1.34791 17.722 1.17623 15.5991 1.22648 15.5991C1.25579 15.5991 6.64478 14.8914 6.76621 14.8747C6.84996 14.8579 6.86671 14.8914 6.96301 15.3018Z" fill="black"/>
</svg>
