<svg width="11" height="30" viewBox="0 0 11 30" fill="none" xmlns="http://www.w3.org/2000/svg">
<path d="M6.45558 0.0549374C7.98133 0.409935 9.23951 1.78337 10.0195 3.94245C10.6172 5.59522 10.9645 7.95217 10.9076 9.89593C10.8564 11.6011 10.6172 12.7825 9.8316 15.2151C9.19397 17.1821 9.13704 17.2403 8.02688 17.025C6.42711 16.7224 3.78551 16.7864 1.9694 17.1763C1.24638 17.3276 0.967414 17.2461 0.790927 16.8271C0.574589 16.3324 0.170378 13.6903 0.0451288 11.9677C-0.0459614 10.6408 0.00527668 8.44684 0.158991 7.42259C0.563203 4.71646 1.42286 2.79016 2.83476 1.41091C3.50085 0.759113 4.14417 0.351738 4.88997 0.113134C5.26572 -0.00907898 6.05137 -0.0381756 6.45558 0.0549374Z" fill="#F2CD00"/>
<path d="M9.46716 21.2678C10.1389 24.1834 10.1446 26.4065 9.48424 27.7916C9.2679 28.2397 8.64165 28.9148 8.22036 29.1534C7.25823 29.7004 5.78371 29.91 4.8842 29.6306C3.38691 29.165 2.3166 27.6403 1.96363 25.4638C1.83269 24.6316 1.59927 21.681 1.66759 21.681C1.70744 21.681 9.03448 20.6975 9.19958 20.6742C9.31344 20.6509 9.33621 20.6975 9.46716 21.2678Z" fill="#F2CD00"/>
</svg>
